<?xml version="1.0" encoding="UTF-8"?>
<!DOCTYPE svg PUBLIC "-//W3C//DTD SVG 1.1//EN" "http://www.w3.org/Graphics/SVG/1.1/DTD/svg11.dtd">
<svg xmlns="http://www.w3.org/2000/svg" version="1.1" width="622px" height="648px" style="shape-rendering:geometricPrecision; text-rendering:geometricPrecision; image-rendering:optimizeQuality; fill-rule:evenodd; clip-rule:evenodd" xmlns:xlink="http://www.w3.org/1999/xlink">
<g><path style="opacity:1" fill="#fefefe" d="M -0.5,-0.5 C 206.833,-0.5 414.167,-0.5 621.5,-0.5C 621.5,215.5 621.5,431.5 621.5,647.5C 414.167,647.5 206.833,647.5 -0.5,647.5C -0.5,431.5 -0.5,215.5 -0.5,-0.5 Z"/></g>
<g><path style="opacity:1" fill="#141a53" d="M 163.5,23.5 C 184.944,22.6813 205.611,26.1813 225.5,34C 241.667,42.1667 253.833,54.3333 262,70.5C 262.932,88.235 254.432,96.735 236.5,96C 232.951,95.2264 229.618,93.893 226.5,92C 221.167,86.6667 215.833,81.3333 210.5,76C 190.509,63.7415 169.843,62.4081 148.5,72C 130.95,83.7547 127.784,98.5881 139,116.5C 143.925,121.713 149.759,125.546 156.5,128C 170.326,132.623 184.326,136.623 198.5,140C 219.291,145.566 238.291,154.566 255.5,167C 278.432,188.303 284.599,213.803 274,243.5C 263.654,266.841 246.154,282.008 221.5,289C 189.4,297.422 157.733,296.089 126.5,285C 109.983,278.141 96.8161,267.308 87,252.5C 80.8379,242.413 80.1713,232.08 85,221.5C 94.0745,211.839 104.575,210.006 116.5,216C 124.585,224.774 132.919,233.441 141.5,242C 152.172,249.838 164.172,253.671 177.5,253.5C 191.248,253.731 203.914,250.231 215.5,243C 231.134,229.288 232.468,214.288 219.5,198C 213.444,193.304 206.777,189.637 199.5,187C 184.34,182.043 169.007,177.71 153.5,174C 135.257,169.044 118.591,161.044 103.5,150C 84.5966,132.917 77.4299,111.75 82,86.5C 90.5441,58.9538 108.377,40.1204 135.5,30C 144.862,27.3652 154.195,25.1985 163.5,23.5 Z"/></g>
<g><path style="opacity:1" fill="#e92b26" d="M 327.5,24.5 C 340.666,22.8303 350.166,27.8303 356,39.5C 356.333,92.5 356.667,145.5 357,198.5C 358.75,227.874 373.916,245.708 402.5,252C 435.316,256.355 457.483,243.188 469,212.5C 481.333,200.595 493.667,200.595 506,212.5C 511.199,221.089 511.866,230.089 508,239.5C 491.682,272.098 465.182,290.265 428.5,294C 400.127,297.441 373.793,291.775 349.5,277C 326.719,259.956 313.886,237.122 311,208.5C 310.333,153.5 310.333,98.5 311,43.5C 313.267,34.2652 318.767,27.9318 327.5,24.5 Z"/></g>
<g><path style="opacity:1" fill="#e92d27" d="M 480.5,24.5 C 495.479,22.4046 505.646,28.4046 511,42.5C 513.157,55.6884 508.323,65.1884 496.5,71C 482.484,75.4432 471.984,71.2765 465,58.5C 460.196,42.4506 465.362,31.1172 480.5,24.5 Z"/></g>
<g><path style="opacity:1" fill="#e92d27" d="M 480.5,84.5 C 501.665,82.8345 511.831,92.5012 511,113.5C 504.117,131.127 491.95,136.294 474.5,129C 465.115,122.19 461.615,113.023 464,101.5C 467.019,93.3156 472.519,87.649 480.5,84.5 Z"/></g>
<g><path style="opacity:1" fill="#e92d27" d="M 483.5,143.5 C 504.723,144.63 513.556,155.63 510,176.5C 503.473,189.845 492.973,194.679 478.5,191C 463.45,182.511 459.616,170.344 467,154.5C 471.352,148.921 476.852,145.254 483.5,143.5 Z"/></g>
<g><path style="opacity:1" fill="#141a53" d="M 153.5,345.5 C 178.046,343.37 201.713,346.87 224.5,356C 242.333,364.5 255.5,377.667 264,395.5C 265.821,409.351 259.988,418.184 246.5,422C 238.955,423.456 231.955,422.123 225.5,418C 219.833,412.333 214.167,406.667 208.5,401C 191.412,390.476 173.079,387.476 153.5,392C 140.623,395.547 131.457,403.38 126,415.5C 122.947,432.891 129.114,445.725 144.5,454C 148.5,455.667 152.5,457.333 156.5,459C 176.398,463.891 196.065,469.558 215.5,476C 239.334,483.64 258.5,497.473 273,517.5C 288.887,553.691 282.387,585.191 253.5,612C 238.895,622.874 222.562,629.874 204.5,633C 187.873,634.575 171.206,634.908 154.5,634C 126.853,631.245 103.353,620.079 84,600.5C 74.5758,590.322 70.2425,578.322 71,564.5C 79.1707,546.613 92.004,542.446 109.5,552C 117.167,560.333 124.833,568.667 132.5,577C 146.185,588.008 161.852,592.675 179.5,591C 195.666,590.398 209.5,584.565 221,573.5C 230.42,558.968 229.586,545.134 218.5,532C 212.658,527.576 206.324,523.909 199.5,521C 178.281,514.289 156.947,507.956 135.5,502C 116.12,495.934 99.2871,485.768 85,471.5C 67.885,448.629 64.885,423.962 76,397.5C 89.3123,372.404 109.812,356.237 137.5,349C 143.029,348.114 148.362,346.947 153.5,345.5 Z"/></g>
<g><path style="opacity:1" fill="#141a53" d="M 399.5,345.5 C 427.025,342.52 453.025,347.353 477.5,360C 492.137,368.772 502.971,380.938 510,396.5C 511.348,409.833 505.515,418.333 492.5,422C 484.955,423.456 477.955,422.123 471.5,418C 466.221,412.721 460.887,407.387 455.5,402C 433.218,387.247 410.218,385.914 386.5,398C 369.326,410.199 366.16,425.366 377,443.5C 383.428,449.966 390.928,454.799 399.5,458C 420.178,464.002 440.845,470.002 461.5,476C 479.175,482.581 495.008,492.081 509,504.5C 528.112,527.503 532.445,553.17 522,581.5C 510.632,605.61 492.132,621.443 466.5,629C 459.308,631.298 451.974,632.965 444.5,634C 416.278,637.41 388.944,634.077 362.5,624C 343.17,615.67 328.67,602.17 319,583.5C 312.29,567.285 316.79,555.452 332.5,548C 339.871,546.69 346.871,547.69 353.5,551C 362.476,559.643 371.142,568.643 379.5,578C 394.65,589.369 411.65,593.369 430.5,590C 447.423,589.387 460.59,582.22 470,568.5C 476.744,552.877 473.578,539.71 460.5,529C 453.229,524.531 445.562,520.865 437.5,518C 418.753,512.98 400.087,507.646 381.5,502C 361.755,495.562 344.588,485.062 330,470.5C 316.275,451.453 312.275,430.453 318,407.5C 329.541,376.621 351.375,357.121 383.5,349C 388.881,347.505 394.214,346.338 399.5,345.5 Z"/></g>
</svg>
